# xmcd
# Track frame offsets:
# 150
# 16254
# 30431
# 79624
# 94810
# 137563
# 156363
# 174526
# 198297
# 214886
# 262932
# 284902
#
# Disc length: 4306 seconds
# Revision: 0
# Processed by: cddbd v1.5.2PL0 Copyright (c) Steve Scherf et al.
# Submitted via: VisiTrax 2.11.1.266 - For more info visit www.synapsa.com
#
DISCID=a110d00c
DTITLE=Mason Rack Band - Live In Canada
DYEAR=2010
DGENRE=
TTITLE0=90 Days
TTITLE1=Seen Her B4
TTITLE2=Dad's Song
TTITLE3=Goin' Out West
TTITLE4=Crawlin' King Snake
TTITLE5=Riot No. 9
TTITLE6=5 Things
TTITLE7=Sick
TTITLE8=In A Can
TTITLE9=Pool Cleaner
TTITLE10=Baby Please Don't Go
TTITLE11=Who Do You Love
EXTD=
EXTT0=
EXTT1=
EXTT2=
EXTT3=
EXTT4=
EXTT5=
EXTT6=
EXTT7=
EXTT8=
EXTT9=
EXTT10=
EXTT11=
PLAYORDER=
